<?xml version="1.0" encoding="utf-8"?>
<!-- Generator: Adobe Illustrator 23.0.3, SVG Export Plug-In . SVG Version: 6.00 Build 0)  -->
<svg version="1.1" id="Layer_1" xmlns="http://www.w3.org/2000/svg" xmlns:xlink="http://www.w3.org/1999/xlink" x="0px" y="0px"
	 viewBox="0 0 491.8 491.8" style="enable-background:new 0 0 491.8 491.8;" xml:space="preserve">
<style type="text/css">
	.st0{fill:#040404;}
	.st1{fill:#050505;}
	.st2{fill:#B6B15D;}
	.st3{fill:#77B9DC;}
	.st4{fill:#FFFFFF;}
	.st5{fill:#7EB9E5;}
	.st6{fill:#4681A1;}
	.st7{fill:#171717;}
	.st8{fill:#141414;}
	.st9{fill:#C3B15F;}
	.st10{fill:#151515;}
	.st11{fill:#232323;}
	.st12{fill:#1E1E1E;}
	.st13{fill:#C5BE92;}
	.st14{fill:#BFB26E;}
	.st15{fill:#7FB5DB;}
	.st16{fill:#1B1B1B;}
	.st17{fill:#1D1D1D;}
	.st18{fill:#111111;}
	.st19{fill:#070707;}
	.st20{fill:#F9F9F9;}
	.st21{fill:#F5F5F5;}
	.st22{fill:#080808;}
	.st23{fill:#0F0F0F;}
	.st24{fill:#FAFAFA;}
	.st25{fill:#81BAD8;}
	.st26{fill:#C4B06B;}
	.st27{fill:#1A1A1A;}
	.st28{fill:#010101;}
	.st29{fill:#2C2C2C;}
	.st30{fill:#0A0A0A;}
	.st31{fill:#D6D6D6;}
	.st32{fill:#C4B866;}
	.st33{fill:#060606;}
</style>
<g>
	<path class="st0" d="M126.4,202.9c-3.1-2.2-6.5-4-9.1-6.5c-13.6-13.4-27-26.9-40.3-40.4c-3.7-3.7-8.6-8.1-2.7-13.3
		c4.2-3.7,8.5-0.9,11.9,2.5c14.6,14.4,29.3,28.8,43.9,43.3c2.9,2.9,3.8,6.8,2.2,10.5C131.6,200.5,128.9,201.3,126.4,202.9z"/>
	<path class="st0" d="M194.6,166.3c1.6,7.5,0.8,10.3-2.4,11.8c-4.1,1.9-7.9,0.5-9.5-3.4c-9-21.9-17.7-44-26.3-66
		c-1.6-4.2,0.3-7.4,4.4-9.1c3.3-1.4,6.6-0.1,7.8,2.8C177.9,124.9,187,147.6,194.6,166.3z"/>
	<path class="st0" d="M333,102.9c7-0.7,8.5,3.9,6.6,8.6c-9.4,22.7-19.4,45.1-29.5,67.5c-1.2,2.5-4.8,4.8-7.7,2.4
		c-2-1.7-4.6-5.6-3.9-7.2c9.9-23.3,20.2-46.3,30.6-69.3C329.5,103.8,331.6,103.5,333,102.9z"/>
	<path class="st0" d="M251.3,134.9c0,9.1,0.1,18.3,0,27.4c-0.1,4.6-0.3,9.9-6.2,10.4c-6.3,0.5-7-4.9-7.1-9.4
		c-0.2-21.3-0.1-42.7,0.1-64c0-4.6,0.9-9.9,7.1-9.2c5.8,0.6,6,6,6.1,10.6C251.4,112.1,251.3,123.5,251.3,134.9z"/>
	<path class="st0" d="M360.3,204.7c-6-0.2-9.7-4.9-6.2-8.7c17-18.5,34.8-36.1,52.7-53.6c1.3-1.3,5.9-0.5,8.1,0.8
		c3.1,1.7,3,5.8,0.9,8c-16.9,17.5-34.1,34.7-51.3,51.9C363.5,204,361.7,204.2,360.3,204.7z"/>
	<path class="st0" d="M68.7,244.6c-10.5-4.4-21.2-8.4-31.4-13.2c-3.6-1.7-4.9-6.5-2.9-9.9c1.1-1.9,5.6-3.7,7.7-3
		c10.7,3.9,21.1,8.4,31.4,13.2c3.8,1.8,5.2,5.9,3.3,9.7C75.4,244.1,72.3,245.2,68.7,244.6z"/>
	<path class="st0" d="M421.3,252.2c-7.5-0.2-12.9-3.2-10.5-7.8c5.8-11.1,18.8-11.4,29.1-15.5c4.6-1.8,11.1,1.8,9.5,6.3
		C444.4,248.8,428.5,245.2,421.3,252.2z"/>
	<g>
		<path class="st0" d="M416,277.4c-43.4-59.5-101.5-89.6-154.8-91.1c-92,0.1-158.1,35.4-196.1,93c-8.1,12.3-9.6,21.8-0.8,35.1
			C146.6,439,333.4,440,416.6,316.3C426.3,301.9,426.2,291.3,416,277.4z M156,242.8c6.4-20.4,17.2-35.1,40.6-38.3
			c15.3-2.1,30.4-4.7,45.9-5.6c12.2,1.5,24.5,2.2,36.5,4.7c43.8,8.8,62.3,36.6,54.9,81.3c-8.6,51.8-60.3,86.1-111.5,74.1
			C171.3,347,140.4,292.9,156,242.8z M404.8,308.5c-71.5,114.4-255.1,114.3-327.5-0.1c-5.4-8.5-5.3-14.3,0.2-22.5
			c14.9-22.3,39.3-44.9,69.3-61.1c-14.6,43.8-11.3,83.2,19.4,116.7c20.8,22.7,47.1,34.1,78.1,33.8c71.3-0.6,108.2-54,100-146
			c26.1,14.5,45,35.1,61.5,58.6C411.3,295.7,409.4,301.2,404.8,308.5z"/>
		<path class="st0" d="M242.7,334.4c35.5,0.4,64.8-28.3,65.3-63.7c0.5-35.3-28.3-64.8-63.7-65.1c-35.4-0.3-65.1,28.3-65.9,63.6
			C177.6,303.9,207.4,334.1,242.7,334.4z M287.7,293.4c-2,8.5-8.4,14.2-15.6,18.2c-6,0.1-6.4-3.9-6.2-7.7c0.4-8.8,5.3-14.3,14-15.4
			C283.2,288.1,289,287.9,287.7,293.4z M192.7,266.7c2.3-26.4,24.7-47.3,55.1-47.1c16.8,0.7,32.7,10.2,41.2,29.6
			c5.4,12.2,13.2,25.6-12.4,26.3c-16.3,0.5-26.1,14.3-24.2,30.8c1.7,14.9-5.2,15-15.6,13.8C211.3,317.1,190.5,292,192.7,266.7z"/>
	</g>
</g>
</svg>
